<svg height="412pt" viewBox="0 -17 412.81877 412" width="412pt" xmlns="http://www.w3.org/2000/svg"><path d="m229.453125 109.074219c-2.78125 8.539062-4.292969 17.605469-4.292969 26.988281v155.113281c0 43.933594 32.488282 77.851563 76.421875 77.851563 43.933594 0 79.550781-35.617188 79.550781-79.550782 0-29.132812-15.707031-54.535156-39.066406-68.394531 36.957032-11.007812 63.925782-45.203125 63.925782-85.738281 0-49.425781-40.070313-89.492188-89.496094-89.492188-23.582032 0-45.457032 9.285157-61.878906 24.363282" fill="#00e7ff"/><path d="m301.582031 375.851562c-47.460937 0-83.25-36.402343-83.25-84.675781v-155.113281c0-9.886719 1.558594-19.679688 4.632813-29.109375 1.171875-3.578125 5.023437-5.539063 8.605468-4.371094 3.585938 1.167969 5.542969 5.019531 4.371094 8.605469-2.625 8.058594-3.953125 16.421875-3.953125 24.875v155.113281c0 40.488281 29.917969 71.023438 69.59375 71.023438 40.101563 0 72.722657-32.625 72.722657-72.722657 0-25.496093-13.6875-49.449218-35.722657-62.523437-2.332031-1.382813-3.625-4.015625-3.292969-6.707031.332032-2.691406 2.230469-4.933594 4.824219-5.707032 34.769531-10.351562 59.050781-42.917968 59.050781-79.195312 0-45.582031-37.085937-82.667969-82.667968-82.667969-21.078125 0-41.414063 8.011719-57.261719 22.570313-2.78125 2.550781-7.101563 2.363281-9.648437-.414063-2.550782-2.777343-2.363282-7.097656.414062-9.644531 18.375-16.871094 41.988281-26.164062 66.496094-26.164062 53.113281 0 96.324218 43.210937 96.324218 96.320312 0 37.777344-22.597656 72.101562-56.316406 87.585938 19.660156 16.273437 31.457032 40.746093 31.457032 66.546874 0 47.625-38.75 86.375-86.378907 86.375zm0 0" fill="#602f75"/><path d="m70.75 221.082031c-36.957031-11.007812-63.925781-45.203125-63.925781-85.738281 0-49.425781 40.070312-89.492188 89.496093-89.492188 49.425782 0 91.335938 40.78125 91.335938 90.210938v155.113281c0 43.933594-32.484375 77.851563-76.421875 77.851563-43.933594 0-79.550781-35.617188-79.550781-79.550782 0-29.132812 15.707031-54.535156 39.066406-68.394531zm0 0" fill="#ffe600"/><g fill="#602f75"><path d="m111.234375 375.851562c-47.628906 0-86.378906-38.75-86.378906-86.375 0-25.800781 11.789062-50.273437 31.457031-66.546874-33.714844-15.484376-56.3125-49.808594-56.3125-87.585938 0-53.109375 43.210938-96.320312 96.320312-96.320312 53.210938 0 98.164063 44.441406 98.164063 97.039062v155.113281c0 48.273438-35.789063 84.675781-83.25 84.675781zm-14.914063-323.175781c-45.585937 0-82.667968 37.085938-82.667968 82.667969 0 36.277344 24.28125 68.84375 59.046875 79.195312 2.59375.773438 4.492187 3.015626 4.824219 5.707032.332031 2.691406-.957032 5.324218-3.292969 6.707031-22.03125 13.074219-35.722657 37.03125-35.722657 62.523437 0 40.097657 32.625 72.722657 72.726563 72.722657 39.671875 0 69.59375-30.535157 69.59375-71.023438v-155.113281c0-45.199219-38.699219-83.386719-84.507813-83.386719zm0 0"/><path d="m214.21875 56.527344c-3.621094 0-6.644531-2.851563-6.8125-6.511719-.480469-10.414063 2.402344-20.464844 8.335938-29.074219 7.195312-10.433594 18.023437-17.445312 30.488281-19.734375 12.46875-2.296875 25.074219.410157 35.507812 7.597657 3.109375 2.140624 3.886719 6.390624 1.746094 9.496093-2.136719 3.109375-6.386719 3.890625-9.492187 1.742188-7.429688-5.125-16.402344-7.0625-25.296876-5.410157-8.875 1.632813-16.589843 6.621094-21.710937 14.054688-4.226563 6.132812-6.277344 13.289062-5.9375 20.699219.171875 3.765625-2.742187 6.960937-6.507813 7.136719-.105468 0-.210937.003906-.320312.003906zm0 0"/><path d="m194.269531 62.765625c-.449219 0-.902343-.042969-1.363281-.136719-3.691406-.75-6.082031-4.351562-5.332031-8.046875 1.835937-9.074219-.042969-18.269531-5.296875-25.894531-10.585938-15.347656-31.675782-19.207031-47.015625-8.644531-3.105469 2.140625-7.355469 1.363281-9.492188-1.742188-2.140625-3.105469-1.359375-7.355469 1.746094-9.496093 21.550781-14.851563 51.15625-9.402344 66 12.136718 7.375 10.703125 10.019531 23.609375 7.4375 36.355469-.65625 3.234375-3.503906 5.46875-6.683594 5.46875zm0 0"/></g><path d="m206.671875 372.421875c-13.195313 0-23.894531-10.695313-23.894531-23.890625v-280.078125c0-13.195313 10.699218-23.890625 23.894531-23.890625s23.894531 10.695312 23.894531 23.890625v280.078125c0 13.195312-10.699218 23.890625-23.894531 23.890625zm0 0" fill="#ea3457"/><path d="m206.671875 379.25c-16.941406 0-30.71875-13.777344-30.71875-30.71875v-280.078125c0-16.9375 13.777344-30.71875 30.71875-30.71875s30.71875 13.78125 30.71875 30.71875v280.078125c0 16.941406-13.777344 30.71875-30.71875 30.71875zm0-327.863281c-9.410156 0-17.066406 7.65625-17.066406 17.066406v280.078125c0 9.410156 7.65625 17.066406 17.066406 17.066406s17.066406-7.65625 17.066406-17.066406v-280.078125c0-9.410156-7.65625-17.066406-17.066406-17.066406zm0 0" fill="#ea3457"/><path d="m231.984375 283.496094h-49.207031c-3.769532 0-6.824219-3.058594-6.824219-6.828125s3.054687-6.828125 6.824219-6.828125h49.207031c3.769531 0 6.828125 3.058594 6.828125 6.828125s-3.058594 6.828125-6.828125 6.828125zm0 0" fill="#602f75"/><path d="m230.566406 317.628906h-47.789062c-3.769532 0-6.824219-3.058594-6.824219-6.828125s3.054687-6.828125 6.824219-6.828125h47.789062c3.769532 0 6.824219 3.058594 6.824219 6.828125s-3.054687 6.828125-6.824219 6.828125zm0 0" fill="#602f75"/><path d="m230.566406 351.761719h-47.789062c-3.769532 0-6.824219-3.058594-6.824219-6.828125 0-3.769532 3.054687-6.824219 6.824219-6.824219h47.789062c3.769532 0 6.824219 3.054687 6.824219 6.824219 0 3.769531-3.054687 6.828125-6.824219 6.828125zm0 0" fill="#602f75"/><path d="m151.296875 139.195312c-3.769531 0-6.828125-3.058593-6.828125-6.828124 0-26.78125-21.789062-48.574219-48.570312-48.574219-3.769532 0-6.824219-3.054688-6.824219-6.824219s3.054687-6.828125 6.824219-6.828125c34.3125 0 62.222656 27.914063 62.222656 62.226563 0 3.769531-3.054688 6.828124-6.824219 6.828124zm0 0" fill="#ea3457"/><path d="m151.296875 194.589844c-3.769531 0-6.828125-3.054688-6.828125-6.824219v-29.546875c0-3.769531 3.058594-6.828125 6.828125-6.828125s6.824219 3.058594 6.824219 6.828125v29.546875c0 3.769531-3.054688 6.824219-6.824219 6.824219zm0 0" fill="#ea3457"/><path d="m302.714844 334.933594c-3.769532 0-6.824219-3.058594-6.824219-6.828125s3.054687-6.828125 6.824219-6.828125c18.636718 0 33.800781-15.160156 33.800781-33.796875 0-3.769531 3.058594-6.824219 6.828125-6.824219s6.828125 3.054688 6.828125 6.824219c-.003906 26.164062-21.289063 47.453125-47.457031 47.453125zm0 0" fill="#ffe600"/></svg>