<?xml version="1.0" encoding="iso-8859-1"?>
<!-- Generator: Adobe Illustrator 19.0.0, SVG Export Plug-In . SVG Version: 6.00 Build 0)  -->
<svg version="1.1" id="Capa_1" xmlns="http://www.w3.org/2000/svg" xmlns:xlink="http://www.w3.org/1999/xlink" x="0px" y="0px"
	 viewBox="0 0 423.253 423.253" style="enable-background:new 0 0 423.253 423.253;" xml:space="preserve">
<circle style="fill:#FFFFFF;" cx="211.627" cy="211.627" r="197.973"/>
<g>
	<circle style="fill:#FFE600;" cx="211.627" cy="211.627" r="109.227"/>
	<path style="fill:#FFE600;" d="M211.627,327.68c-63.993,0-116.053-52.06-116.053-116.053s52.06-116.053,116.053-116.053
		s116.053,52.06,116.053,116.053S275.62,327.68,211.627,327.68z M211.627,109.227c-56.467,0-102.4,45.937-102.4,102.4
		s45.933,102.4,102.4,102.4s102.4-45.937,102.4-102.4S268.093,109.227,211.627,109.227z"/>
</g>
<path style="fill:#00E7FF;" d="M211.627,423.253C94.933,423.253,0,328.317,0,211.627S94.933,0,211.627,0
	s211.627,94.937,211.627,211.627S328.32,423.253,211.627,423.253z M211.627,27.307c-101.634,0-184.32,82.686-184.32,184.32
	s82.686,184.32,184.32,184.32s184.32-82.686,184.32-184.32S313.26,27.307,211.627,27.307z"/>
<polygon style="fill:#EA3457;" points="341.333,81.92 245.704,244.808 81.92,341.333 178.446,177.548 "/>
<path style="fill:#602F75;" d="M81.92,348.16c-1.766,0-3.514-0.683-4.826-2c-2.2-2.2-2.633-5.61-1.053-8.293l96.527-163.784
	c0.587-1,1.42-1.833,2.427-2.42l162.886-95.63c2.673-1.577,6.086-1.14,8.281,1.06c2.2,2.196,2.633,5.603,1.06,8.284l-95.626,162.886
	c-0.587,1-1.42,1.836-2.42,2.423L85.388,347.215C84.306,347.849,83.113,348.16,81.92,348.16z M183.427,182.54l-82.214,139.496
	l139.5-82.214l81.447-138.733L183.427,182.54z"/>
<circle style="fill:#FFFFFF;" cx="211.627" cy="211.627" r="20.48"/>
<path style="fill:#602F75;" d="M211.627,238.933c-15.06,0-27.307-12.25-27.307-27.307c0-15.056,12.247-27.307,27.307-27.307
	c15.06,0,27.307,12.25,27.307,27.307C238.933,226.683,226.686,238.933,211.627,238.933z M211.627,197.973
	c-7.526,0-13.653,6.124-13.653,13.653c0,7.53,6.127,13.653,13.653,13.653c7.526,0,13.653-6.124,13.653-13.653
	C225.28,204.097,219.153,197.973,211.627,197.973z"/>
<g>
</g>
<g>
</g>
<g>
</g>
<g>
</g>
<g>
</g>
<g>
</g>
<g>
</g>
<g>
</g>
<g>
</g>
<g>
</g>
<g>
</g>
<g>
</g>
<g>
</g>
<g>
</g>
<g>
</g>
</svg>
