<?xml version="1.0" encoding="iso-8859-1"?>
<!-- Generator: Adobe Illustrator 19.0.0, SVG Export Plug-In . SVG Version: 6.00 Build 0)  -->
<svg version="1.1" id="Capa_1" xmlns="http://www.w3.org/2000/svg" xmlns:xlink="http://www.w3.org/1999/xlink" x="0px" y="0px"
	 viewBox="0 0 430.072 430.072" style="enable-background:new 0 0 430.072 430.072;" xml:space="preserve">
<path style="fill:#FFFFFF;" d="M176.368,148.445C66.892,176.315,27.282,273.062,27.282,273.062
	c-46.07-118.077,77.025-197.175,103.747-212.668l-22.762-44.203c-3.471-6.743-0.418-10.75,6.929-8.929l138.476,34.364
	c7.299,1.814,10.976,9.039,8.253,16.031l-51.99,133.586c-2.741,7.045-7.77,7.301-11.25,0.544L176.368,148.445z"/>
<path style="fill:#602F75;" d="M27.284,279.887c-0.02,0-0.039,0-0.06,0c-2.794-0.027-5.287-1.742-6.299-4.342
	C-24.49,159.158,86.95,79.437,122.031,57.826l-19.828-38.509c-4.193-8.136-1.294-13.251,0.147-15.072
	c1.427-1.812,5.7-5.792,14.493-3.606l138.474,34.365c5.441,1.352,9.807,4.733,12.286,9.523c2.454,4.739,2.7,10.431,0.679,15.611
	l-51.987,133.583c-3.294,8.472-9.027,9.668-11.341,9.788c-2.326,0.138-8.16-0.464-12.339-8.595l-19.801-38.449
	C72.055,184.817,33.974,274.736,33.595,275.658C32.544,278.215,30.05,279.887,27.284,279.887z M114.943,14.233l22.153,43.037
	c1.667,3.236,0.507,7.207-2.64,9.032C111.003,79.897,0.349,150.44,28.562,255.188c16.273-29.169,60.052-91.448,146.12-113.359
	c3.106-0.783,6.299,0.662,7.753,3.49l21.666,42.085l51.459-132.222c0.601-1.551,0.573-3.104-0.087-4.379
	c-0.66-1.27-1.853-2.152-3.453-2.55L114.943,14.233z"/>
<path style="fill:#EA3457;" d="M253.706,281.619c109.478-27.861,149.086-124.611,149.086-124.611
	c46.07,118.079-77.024,197.168-103.745,212.663l22.76,44.201c3.471,6.743,0.418,10.757-6.929,8.936l-138.476-34.371
	c-7.299-1.809-10.976-9.035-8.253-16.031l51.99-133.589c2.741-7.038,7.77-7.294,11.25-0.536L253.706,281.619z"/>
<path style="fill:#602F75;" d="M318.084,430.072c-1.434,0-3.046-0.186-4.847-0.633l-138.481-34.374
	c-5.441-1.348-9.8-4.727-12.279-9.515c-2.459-4.741-2.707-10.435-0.686-15.619l51.987-133.584c3.294-8.468,9.027-9.661,11.341-9.783
	c2.294-0.099,8.153,0.468,12.339,8.598l19.801,38.443c101.007-28.401,138.841-118.26,139.213-119.18
	c1.053-2.567,3.553-4.239,6.32-4.239c0.02,0,0.039,0,0.053,0c2.794,0.024,5.294,1.744,6.306,4.345
	c45.406,116.371-66.028,196.098-101.106,217.713l19.826,38.508c4.193,8.137,1.294,13.252-0.147,15.073
	C326.59,427.263,323.65,430.072,318.084,430.072z M225.964,242.663l-51.453,132.221c-0.606,1.553-0.573,3.11,0.087,4.384
	c0.66,1.27,1.853,2.15,3.447,2.545l137.093,34.029l-22.159-43.046c-1.667-3.234-0.507-7.207,2.64-9.03
	c23.453-13.599,134.1-84.151,105.894-188.882c-16.273,29.167-60.054,91.445-146.12,113.348c-3.106,0.79-6.299-0.662-7.753-3.49
	L225.964,242.663z"/>
<g>
	<circle style="fill:#00E7FF;" cx="344.742" cy="102.396" r="34.133"/>
	<path style="fill:#00E7FF;" d="M344.744,143.356c-22.586,0-40.96-18.376-40.96-40.96s18.374-40.96,40.96-40.96
		c22.586,0,40.96,18.376,40.96,40.96S367.33,143.356,344.744,143.356z M344.744,75.089c-15.06,0-27.307,12.25-27.307,27.307
		s12.247,27.307,27.307,27.307s27.307-12.25,27.307-27.307S359.804,75.089,344.744,75.089z"/>
</g>
<g>
	<circle style="fill:#FFE600;" cx="71.676" cy="341.329" r="34.133"/>
	<path style="fill:#FFE600;" d="M71.678,382.289c-22.586,0-40.96-18.376-40.96-40.96c0-22.584,18.374-40.96,40.96-40.96
		s40.96,18.376,40.96,40.96C112.638,363.913,94.264,382.289,71.678,382.289z M71.678,314.022c-15.06,0-27.307,12.25-27.307,27.307
		c0,15.056,12.247,27.307,27.307,27.307s27.307-12.25,27.307-27.307C98.984,326.273,86.737,314.022,71.678,314.022z"/>
</g>
<g>
</g>
<g>
</g>
<g>
</g>
<g>
</g>
<g>
</g>
<g>
</g>
<g>
</g>
<g>
</g>
<g>
</g>
<g>
</g>
<g>
</g>
<g>
</g>
<g>
</g>
<g>
</g>
<g>
</g>
</svg>
